<?xml version="1.0" encoding="UTF-8" standalone="no"?>
<!DOCTYPE svg PUBLIC "-//W3C//DTD SVG 20010904//EN" "http://www.w3.org/TR/2001/REC-SVG-20010904/DTD/svg10.dtd">

<svg class="logo" xmlns="http://www.w3.org/2000/svg" width="3.6in" height="3.6in" viewBox="0 0 1080 1080">
  <path id="logo" fill="#e74a98" stroke="none" stroke-width="0" d="M 675.00,105.00
           C 675.23,94.36 681.25,79.20 684.62,68.83
             684.62,68.83 686.39,61.28 686.39,61.28
             686.39,61.28 692.62,42.83 692.62,42.83
             697.99,26.70 703.21,13.04 723.00,13.00
             723.00,13.00 736.00,13.00 736.00,13.00
             746.33,13.02 752.40,16.72 761.27,21.40
             770.63,26.34 779.89,31.24 788.27,37.77
             792.85,41.34 798.73,46.94 801.30,52.17
             804.98,59.69 804.09,66.82 804.00,75.00
             803.91,82.69 801.21,89.80 799.09,97.09
             799.09,97.09 789.29,125.16 789.29,125.16
             789.29,125.16 784.86,137.72 784.86,137.72
             782.20,144.33 775.91,157.70 775.00,164.00
             775.00,164.00 773.00,163.00 773.00,163.00
             772.41,169.93 766.40,181.99 763.55,189.00
             758.08,202.46 743.39,238.53 741.00,251.00
             746.71,250.72 746.33,250.10 751.00,249.32
             751.00,249.32 766.00,248.00 766.00,248.00
             778.23,247.94 790.91,247.31 803.00,249.32
             803.00,249.32 823.56,254.61 823.56,254.61
             823.56,254.61 842.00,264.00 842.00,264.00
             842.00,264.00 841.00,266.00 841.00,266.00
             850.73,268.67 859.86,283.11 864.15,291.87
             867.86,299.47 872.22,311.69 873.56,320.00
             873.56,320.00 874.26,327.91 874.26,327.91
             874.26,327.91 875.93,333.17 875.93,333.17
             875.93,333.17 875.93,342.00 875.93,342.00
             875.93,342.00 877.00,353.00 877.00,353.00
             877.00,353.00 877.00,384.00 877.00,384.00
             876.98,399.77 873.06,414.93 869.18,430.09
             865.62,443.95 860.57,460.62 854.48,473.56
             837.92,508.75 806.16,539.73 773.45,560.05
             757.59,569.91 742.05,577.15 724.17,582.43
             724.17,582.43 713.83,585.80 713.83,585.80
             713.83,585.80 704.09,587.25 704.09,587.25
             704.09,587.25 698.83,588.76 698.83,588.76
             698.83,588.76 683.00,590.00 683.00,590.00
             683.00,590.00 664.00,590.00 664.00,590.00
             664.00,590.00 646.00,589.00 646.00,589.00
             646.00,589.00 647.00,587.00 647.00,587.00
             638.05,586.92 629.57,583.34 621.83,578.99
             613.74,574.43 606.63,569.54 600.39,562.54
             593.96,555.32 587.33,542.28 585.20,532.83
             585.20,532.83 583.74,522.09 583.74,522.09
             582.58,516.08 582.01,519.82 582.00,511.00
             582.00,511.00 582.00,481.00 582.00,481.00
             582.10,474.30 583.32,475.49 583.87,470.96
             584.70,464.11 584.32,457.44 586.27,450.72
             587.29,447.22 586.20,444.51 589.00,442.00
             588.25,434.82 590.32,427.82 591.75,420.91
             591.75,420.91 593.24,410.00 593.24,410.00
             593.24,410.00 596.75,395.91 596.75,395.91
             596.75,395.91 598.20,386.17 598.20,386.17
             598.20,386.17 602.04,371.00 602.04,371.00
             602.04,371.00 603.42,362.28 603.42,362.28
             603.42,362.28 611.41,330.00 611.41,330.00
             611.41,330.00 615.30,317.00 615.30,317.00
             615.30,317.00 616.41,311.28 616.41,311.28
             616.41,311.28 627.90,271.91 627.90,271.91
             627.90,271.91 629.39,265.28 629.39,265.28
             629.39,265.28 642.20,218.17 642.20,218.17
             643.78,211.16 646.81,205.46 647.00,198.00
             647.00,198.00 649.00,199.00 649.00,199.00
             649.22,188.79 651.51,186.20 653.91,177.00
             653.91,177.00 668.15,124.17 668.15,124.17
             669.99,116.89 672.64,111.88 673.00,104.00
             673.00,104.00 675.00,105.00 675.00,105.00 Z
           M 519.00,556.00
           C 520.13,563.60 513.84,577.16 511.43,585.17
             511.43,585.17 505.24,608.00 505.24,608.00
             505.24,608.00 498.46,629.17 498.46,629.17
             498.46,629.17 493.38,648.17 493.38,648.17
             493.38,648.17 487.84,666.04 487.84,666.04
             487.84,666.04 485.21,677.91 485.21,677.91
             485.21,677.91 477.61,702.00 477.61,702.00
             477.61,702.00 476.28,709.00 476.28,709.00
             476.28,709.00 469.98,727.08 469.98,727.08
             469.98,727.08 462.91,750.00 462.91,750.00
             462.91,750.00 451.99,775.00 451.99,775.00
             451.99,775.00 446.38,787.83 446.38,787.83
             427.53,824.72 401.83,852.94 367.96,876.49
             359.01,882.71 332.38,896.40 322.00,899.29
             322.00,899.29 309.00,901.45 309.00,901.45
             298.40,903.84 293.09,905.14 282.00,905.00
             275.07,904.90 275.98,903.90 271.00,903.21
             262.18,901.98 264.55,904.00 253.17,900.06
             240.68,895.74 228.09,887.08 218.63,878.00
             212.87,872.47 205.42,863.01 201.64,856.00
             195.66,844.92 188.02,818.39 188.00,806.00
             188.00,806.00 188.00,785.00 188.00,785.00
             188.10,779.01 188.84,779.86 189.76,775.00
             191.58,765.29 193.10,755.42 196.29,746.00
             196.29,746.00 208.02,719.00 208.02,719.00
             218.08,695.82 233.87,673.72 249.55,654.00
             249.55,654.00 256.32,645.00 256.32,645.00
             256.32,645.00 281.83,617.09 281.83,617.09
             281.83,617.09 293.04,605.03 293.04,605.03
             315.52,582.47 340.11,561.85 365.09,542.12
             365.09,542.12 375.68,534.58 375.68,534.58
             375.68,534.58 405.00,513.30 405.00,513.30
             410.05,509.84 419.89,504.71 423.78,500.70
             427.28,497.09 430.17,486.16 432.15,481.00
             432.15,481.00 438.70,464.83 438.70,464.83
             438.70,464.83 443.03,451.00 443.03,451.00
             443.03,451.00 449.59,433.09 449.59,433.09
             449.59,433.09 457.95,407.00 457.95,407.00
             457.95,407.00 464.62,387.83 464.62,387.83
             464.62,387.83 471.06,365.17 471.06,365.17
             471.06,365.17 475.03,354.00 475.03,354.00
             475.03,354.00 478.48,339.00 478.48,339.00
             478.48,339.00 485.55,314.85 485.55,314.85
             485.55,314.85 489.15,296.17 489.15,296.17
             489.15,296.17 493.63,279.00 493.63,279.00
             493.63,279.00 494.21,270.00 494.21,270.00
             494.21,270.00 495.81,263.00 495.81,263.00
             495.81,263.00 497.13,250.00 497.13,250.00
             497.60,245.95 498.98,244.60 498.94,240.00
             498.94,240.00 496.37,222.01 496.37,222.01
             494.53,213.38 487.62,211.35 480.01,214.59
             480.01,214.59 463.00,223.58 463.00,223.58
             463.00,223.58 441.28,232.65 441.28,232.65
             441.28,232.65 416.01,244.22 416.01,244.22
             416.01,244.22 399.44,251.04 399.44,251.04
             399.44,251.04 389.00,256.42 389.00,256.42
             389.00,256.42 364.96,265.77 364.96,265.77
             364.96,265.77 348.83,273.22 348.83,273.22
             348.83,273.22 339.28,276.65 339.28,276.65
             339.28,276.65 318.00,286.09 318.00,286.09
             318.00,286.09 295.28,294.70 295.28,294.70
             295.28,294.70 275.58,303.35 275.58,303.35
             275.58,303.35 256.00,310.32 256.00,310.32
             256.00,310.32 243.00,315.98 243.00,315.98
             243.00,315.98 221.00,323.17 221.00,323.17
             221.00,323.17 206.00,328.98 206.00,328.98
             197.82,331.78 189.50,333.57 181.08,335.26
             177.84,335.91 175.88,337.48 172.00,337.53
             169.50,337.56 167.42,336.76 165.00,336.31
             151.81,333.87 145.48,329.39 139.46,317.00
             137.24,312.42 136.09,309.10 136.00,304.00
             135.86,294.93 136.46,297.54 138.04,290.00
             142.60,268.20 153.45,256.78 172.00,244.80
             172.00,244.80 192.00,234.76 192.00,234.76
             192.00,234.76 210.00,225.11 210.00,225.11
             210.00,225.11 234.85,213.82 234.85,213.82
             234.85,213.82 245.00,208.05 245.00,208.05
             245.00,208.05 271.83,195.85 271.83,195.85
             271.83,195.85 286.00,188.43 286.00,188.43
             286.00,188.43 343.00,162.01 343.00,162.01
             343.00,162.01 354.01,156.01 354.01,156.01
             354.01,156.01 381.04,144.00 381.04,144.00
             381.04,144.00 450.00,111.99 450.00,111.99
             450.00,111.99 465.00,104.48 465.00,104.48
             465.00,104.48 488.72,94.32 488.72,94.32
             488.72,94.32 497.00,89.67 497.00,89.67
             506.58,84.99 527.80,76.62 538.00,75.15
             538.00,75.15 552.00,75.15 552.00,75.15
             558.48,75.10 556.86,75.97 561.09,76.74
             564.35,77.33 565.92,76.59 570.00,77.72
             592.56,83.96 618.27,105.39 627.44,127.00
             632.38,138.63 633.14,148.56 633.00,161.00
             632.88,170.60 629.63,176.30 627.62,185.01
             627.62,185.01 624.94,196.83 624.94,196.83
             624.94,196.83 617.90,218.00 617.90,218.00
             617.90,218.00 614.03,233.00 614.03,233.00
             614.03,233.00 607.38,253.17 607.38,253.17
             607.38,253.17 603.28,270.00 603.28,270.00
             603.28,270.00 596.97,290.00 596.97,290.00
             596.97,290.00 593.54,306.00 593.54,306.00
             593.54,306.00 586.41,331.00 586.41,331.00
             586.41,331.00 582.64,347.00 582.64,347.00
             582.64,347.00 576.43,366.17 576.43,366.17
             576.43,366.17 574.53,375.00 574.53,375.00
             574.53,375.00 570.97,387.00 570.97,387.00
             570.97,387.00 544.97,474.09 544.97,474.09
             544.97,474.09 541.28,488.00 541.28,488.00
             541.28,488.00 532.69,514.28 532.69,514.28
             532.69,514.28 530.00,525.00 530.00,525.00
             530.00,525.00 523.67,545.04 523.67,545.04
             522.45,548.47 521.69,553.69 519.00,556.00 Z
           M 763.00,444.00
           C 763.00,444.00 770.85,420.83 770.85,420.83
             770.85,420.83 773.74,408.00 773.74,408.00
             773.74,408.00 774.26,401.09 774.26,401.09
             775.03,396.86 775.90,398.48 776.00,392.00
             776.24,375.63 775.85,369.91 771.66,354.01
             768.56,342.24 759.89,324.66 745.04,327.22
             740.58,327.99 737.06,332.09 734.31,335.43
             728.62,342.32 721.66,356.49 718.42,364.96
             718.42,364.96 711.26,382.29 711.26,382.29
             711.26,382.29 701.91,414.00 701.91,414.00
             701.91,414.00 698.20,427.17 698.20,427.17
             698.20,427.17 696.74,438.91 696.74,438.91
             696.74,438.91 694.99,444.17 694.99,444.17
             694.99,444.17 694.99,451.00 694.99,451.00
             693.71,457.30 693.02,454.35 693.00,463.00
             693.00,463.00 693.00,484.00 693.00,484.00
             693.01,488.40 694.00,499.68 699.17,501.30
             700.98,501.87 703.37,500.61 705.00,499.85
             705.00,499.85 719.15,491.67 719.15,491.67
             731.92,482.88 745.15,470.85 753.64,457.84
             756.87,452.88 760.19,448.94 761.00,443.00
             761.00,443.00 763.00,444.00 763.00,444.00 Z
           M 687.00,865.00
           C 704.63,845.64 723.52,815.87 735.88,792.58
             735.88,792.58 743.84,776.00 743.84,776.00
             743.84,776.00 765.25,728.72 765.25,728.72
             765.25,728.72 769.80,715.00 769.80,715.00
             769.80,715.00 775.57,699.83 775.57,699.83
             775.57,699.83 779.49,685.00 779.49,685.00
             779.49,685.00 785.20,668.00 785.20,668.00
             785.20,668.00 786.40,662.09 786.40,662.09
             786.40,662.09 788.51,656.83 788.51,656.83
             788.51,656.83 789.54,651.17 789.54,651.17
             789.54,651.17 791.46,646.83 791.46,646.83
             791.46,646.83 792.49,641.00 792.49,641.00
             792.49,641.00 798.43,623.00 798.43,623.00
             798.43,623.00 803.28,605.00 803.28,605.00
             803.28,605.00 809.54,584.83 809.54,584.83
             809.54,584.83 810.41,580.00 810.41,580.00
             810.41,580.00 812.51,574.00 812.51,574.00
             812.51,574.00 813.68,568.00 813.68,568.00
             813.68,568.00 819.24,553.72 819.24,553.72
             819.24,553.72 821.67,547.09 821.67,547.09
             827.81,534.90 838.08,525.10 851.00,520.42
             857.06,518.23 857.56,518.01 864.00,518.00
             864.00,518.00 874.00,518.00 874.00,518.00
             881.86,518.13 889.09,521.92 896.00,525.26
             899.98,527.18 907.66,532.33 910.98,535.26
             917.18,540.74 924.41,551.66 925.85,560.00
             925.85,560.00 925.85,570.00 925.85,570.00
             926.34,574.58 926.58,579.41 925.85,583.96
             925.85,583.96 923.27,591.09 923.27,591.09
             923.27,591.09 922.57,596.72 922.57,596.72
             922.57,596.72 904.51,649.00 904.51,649.00
             904.51,649.00 890.03,684.00 890.03,684.00
             890.03,684.00 874.88,720.00 874.88,720.00
             874.88,720.00 843.33,787.17 843.33,787.17
             816.96,842.89 778.76,919.39 743.40,969.00
             733.07,983.50 713.44,1001.38 697.00,1008.40
             697.00,1008.40 684.91,1012.02 684.91,1012.02
             684.91,1012.02 678.17,1012.59 678.17,1012.59
             676.25,1012.95 675.02,1013.77 672.91,1013.76
             672.91,1013.76 666.00,1012.45 666.00,1012.45
             666.00,1012.45 659.00,1012.45 659.00,1012.45
             649.50,1011.00 635.14,1004.30 628.00,997.89
             622.18,992.68 617.02,986.76 613.07,980.00
             604.36,965.10 600.69,950.12 599.82,933.00
             599.82,933.00 599.82,925.00 599.82,925.00
             599.82,920.14 600.83,907.11 599.82,903.00
             596.81,908.65 592.40,913.37 588.09,918.17
             578.49,928.87 566.35,940.58 551.91,944.31
             551.91,944.31 545.00,945.25 545.00,945.25
             542.66,945.66 540.37,946.75 538.00,946.75
             538.00,946.75 530.00,945.11 530.00,945.11
             513.44,942.86 522.34,945.39 506.00,939.51
             491.40,934.26 475.58,923.40 467.98,909.72
             466.49,907.03 463.07,897.02 463.40,894.18
             463.59,892.48 464.15,892.21 464.91,891.00
             461.42,887.79 463.38,882.84 464.91,879.00
             461.37,875.74 464.06,872.05 464.91,868.00
             464.91,868.00 465.58,860.00 465.58,860.00
             465.58,860.00 468.61,841.00 468.61,841.00
             468.61,841.00 472.55,827.00 472.55,827.00
             472.55,827.00 473.63,819.00 473.63,819.00
             473.63,819.00 477.79,804.91 477.79,804.91
             482.30,787.45 488.51,770.48 495.22,753.72
             495.22,753.72 497.32,747.00 497.32,747.00
             497.32,747.00 511.64,711.83 511.64,711.83
             519.14,693.53 534.09,656.85 544.21,641.42
             554.06,626.41 562.96,610.63 581.01,604.30
             581.01,604.30 587.91,602.78 587.91,602.78
             594.16,601.34 590.39,601.01 599.00,601.00
             610.32,600.98 614.95,600.28 625.96,604.56
             638.53,609.43 650.31,621.69 653.34,635.09
             653.94,639.45 653.33,640.18 653.34,644.00
             653.53,646.82 654.05,647.94 653.34,651.00
             650.74,666.78 637.34,682.92 629.06,696.46
             629.06,696.46 614.33,722.00 614.33,722.00
             614.33,722.00 585.25,774.00 585.25,774.00
             585.25,774.00 572.31,802.01 572.31,802.01
             570.76,806.05 568.74,808.67 569.00,813.00
             571.41,807.64 575.78,803.44 579.34,798.83
             579.34,798.83 600.26,771.83 600.26,771.83
             600.26,771.83 611.59,756.00 611.59,756.00
             611.59,756.00 622.29,741.72 622.29,741.72
             633.92,724.32 644.71,703.70 663.71,693.34
             671.29,689.21 678.15,686.11 687.00,686.00
             691.76,685.95 700.52,686.40 704.99,687.61
             715.28,690.40 727.61,699.29 730.51,710.00
             731.94,715.32 730.73,720.11 729.46,725.17
             729.46,725.17 728.46,731.00 728.46,731.00
             728.46,731.00 718.50,755.96 718.50,755.96
             718.50,755.96 696.54,822.00 696.54,822.00
             696.54,822.00 693.47,830.00 693.47,830.00
             693.47,830.00 691.88,841.00 691.88,841.00
             690.20,848.95 687.20,856.77 687.00,865.00 Z
           M 392.00,631.00
           C 392.00,631.00 390.00,631.00 390.00,631.00
             390.00,631.00 351.31,674.00 351.31,674.00
             333.59,695.57 312.59,725.80 300.88,751.00
             296.49,760.47 290.97,770.11 288.43,780.28
             288.43,780.28 287.63,786.00 287.63,786.00
             284.35,802.95 285.00,801.98 285.00,819.00
             305.99,808.89 318.85,789.25 330.93,770.17
             343.19,750.79 352.98,729.97 362.13,709.00
             362.13,709.00 374.21,681.83 374.21,681.83
             374.21,681.83 377.50,672.00 377.50,672.00
             377.50,672.00 387.18,647.00 387.18,647.00
             387.18,647.00 392.00,631.00 392.00,631.00 Z
           M 602.00,902.00
           C 602.00,902.00 601.00,902.00 601.00,902.00
             601.00,902.00 602.00,903.00 602.00,903.00
             602.00,903.00 602.00,902.00 602.00,902.00 Z" />
</svg>